<mxfile host="app.diagrams.net" modified="2024-04-26T02:04:49.272Z" agent="Mozilla/5.0 (Macintosh; Intel Mac OS X 10.15; rv:125.0) Gecko/20100101 Firefox/125.0" version="24.2.5" etag="Jua1dBEQQnwrussONl3j" type="github">
  <diagram name="第 1 页" id="XAuuXJV_rntuQA0lp9TF">
    <mxGraphModel>
      <root>
        <mxCell id="0" />
        <mxCell id="1" parent="0" />
      </root>
    </mxGraphModel>
  </diagram>
</mxfile>
